
      <svg data-logo="logo" xmlns="http://www.w3.org/2000/svg" viewBox="0 0 278.05999755859375 41" width="278.05999755859375" height="41">
        <g id="logogram" transform="
    translate(0, 0.5)
    rotate(0 23.5 20)
    
  "><path d="M21.3474 0.349945L46.7544 25.7266V39.3499H34.8978V30.624L16.4444 12.1924H12.611V39.3499H0.754395V0.349945H21.3474ZM34.8978 13.8842V0.349945H46.7544V13.8842H34.8978Z" fill="#212326"/></g>
        <g id="logotype" transform="translate(53, 7.289999999999999)"><path fill="#000000" d="M12.37 26L7.82 26L7.82 1.50L12.37 1.50L23.82 18.65L23.82 1.50L28.37 1.50L28.37 26L23.82 26L12.37 8.88L12.37 26ZM40.02 26.42L40.02 26.42Q37.36 26.42 35.33 25.28Q33.30 24.14 32.15 22.13Q30.99 20.12 30.99 17.46L30.99 17.46Q30.99 14.76 32.13 12.66Q33.27 10.56 35.30 9.39Q37.33 8.22 40.02 8.22L40.02 8.22Q42.61 8.22 44.57 9.34Q46.53 10.46 47.63 12.38Q48.73 14.31 48.73 16.76L48.73 16.76Q48.73 17.11 48.73 17.53Q48.73 17.95 48.67 18.41L48.67 18.41L34.28 18.41L34.28 15.60L44.15 15.60Q44.05 13.92 42.89 12.91Q41.73 11.89 40.06 11.89L40.06 11.89Q38.80 11.89 37.75 12.45Q36.70 13.01 36.08 14.12Q35.47 15.22 35.47 16.93L35.47 16.93L35.47 17.91Q35.47 19.38 36.07 20.47Q36.66 21.55 37.68 22.13Q38.69 22.71 39.98 22.71L39.98 22.71Q41.32 22.71 42.23 22.11Q43.14 21.52 43.63 20.54L43.63 20.54L48.25 20.54Q47.76 22.18 46.62 23.53Q45.48 24.88 43.80 25.65Q42.12 26.42 40.02 26.42ZM53.99 26L49.09 26L55.42 17.32L49.09 8.64L53.99 8.64L58.36 14.76L62.70 8.64L67.57 8.64L61.23 17.32L67.57 26L62.70 26L58.36 19.88L53.99 26ZM74.67 26.42L74.67 26.42Q72.71 26.42 71.29 25.72Q69.88 25.02 69.14 23.83Q68.41 22.64 68.41 21.20L68.41 21.20Q68.41 18.48 70.37 16.99Q72.33 15.50 75.51 15.50L75.51 15.50Q77.02 15.50 78.10 15.71Q79.19 15.92 79.89 16.16L79.89 16.16L79.89 15.32Q79.89 13.50 78.85 12.66Q77.82 11.82 76.18 11.82L76.18 11.82Q75.02 11.82 74.11 12.30Q73.20 12.77 72.96 13.96L72.96 13.96L68.65 13.96Q68.86 12.10 69.91 10.83Q70.96 9.55 72.59 8.88Q74.22 8.22 76.18 8.22L76.18 8.22Q80.06 8.22 82.25 10.07Q84.44 11.93 84.44 15.32L84.44 15.32L84.44 19.24Q84.44 20.57 84.59 21.20Q84.75 21.84 85.10 22.01Q85.45 22.18 86.05 22.18L86.05 22.18L86.19 22.18L86.19 26L85.21 26Q83.35 26 82.13 25.51Q80.90 25.02 80.34 23.59L80.34 23.59Q79.47 24.81 78.03 25.61Q76.60 26.42 74.67 26.42ZM75.69 22.95L75.69 22.95Q76.81 22.95 77.59 22.45Q78.38 21.94 78.91 21.05Q79.43 20.16 79.64 19.11L79.64 19.11Q78.91 18.89 77.94 18.70Q76.98 18.51 76.00 18.51L76.00 18.51Q74.64 18.51 73.81 19.12Q72.99 19.73 72.99 20.82L72.99 20.82Q72.99 21.77 73.71 22.36Q74.43 22.95 75.69 22.95ZM108.55 26L104.00 26L104.00 1.50L108.55 1.50L108.55 26ZM93.05 26L88.50 26L88.50 1.50L93.05 1.50L93.05 26ZM104.77 15.32L92.45 15.32L92.45 11.65L104.77 11.65L104.77 15.32ZM117.86 26.42L117.86 26.42Q114.89 26.42 113.15 24.37Q111.42 22.32 111.42 18.41L111.42 18.41L111.42 8.64L115.97 8.64L115.97 17.98Q115.97 20.23 116.83 21.40Q117.69 22.57 119.33 22.57L119.33 22.57Q121.19 22.57 122.20 21.26Q123.22 19.95 123.22 17.60L123.22 17.60L123.22 8.64L127.77 8.64L127.77 26L123.22 26L123.22 23.45Q122.45 24.81 121.12 25.61Q119.79 26.42 117.86 26.42ZM140.96 26.42L140.96 26.42Q139.00 26.42 137.55 25.68Q136.10 24.95 135.19 23.66L135.19 23.66L135.19 26L130.64 26L130.64 0.80L135.19 0.80L135.19 11.12Q136.03 9.97 137.41 9.09Q138.79 8.22 140.96 8.22L140.96 8.22Q143.41 8.22 145.34 9.41Q147.26 10.60 148.38 12.66Q149.50 14.73 149.50 17.35L149.50 17.35Q149.50 19.95 148.38 22.01Q147.26 24.07 145.34 25.25Q143.41 26.42 140.96 26.42ZM139.95 22.46L139.95 22.46Q141.38 22.46 142.50 21.80Q143.62 21.13 144.25 19.98Q144.88 18.82 144.88 17.35L144.88 17.35Q144.88 15.85 144.25 14.68Q143.62 13.50 142.50 12.84Q141.38 12.17 139.95 12.17L139.95 12.17Q138.51 12.17 137.41 12.84Q136.31 13.50 135.69 14.66Q135.08 15.81 135.08 17.32L135.08 17.32Q135.08 18.82 135.69 19.98Q136.31 21.13 137.41 21.80Q138.51 22.46 139.95 22.46ZM162.80 26L158.25 26L158.25 5.17L151.08 5.17L151.08 1.50L169.94 1.50L169.94 5.17L162.80 5.17L162.80 26ZM176.56 26.42L176.56 26.42Q173.90 26.42 171.87 25.28Q169.84 24.14 168.68 22.13Q167.53 20.12 167.53 17.46L167.53 17.46Q167.53 14.76 168.66 12.66Q169.80 10.56 171.83 9.39Q173.86 8.22 176.56 8.22L176.56 8.22Q179.15 8.22 181.11 9.34Q183.07 10.46 184.17 12.38Q185.27 14.31 185.27 16.76L185.27 16.76Q185.27 17.11 185.27 17.53Q185.27 17.95 185.20 18.41L185.20 18.41L170.82 18.41L170.82 15.60L180.69 15.60Q180.58 13.92 179.43 12.91Q178.27 11.89 176.59 11.89L176.59 11.89Q175.33 11.89 174.28 12.45Q173.23 13.01 172.62 14.12Q172.01 15.22 172.01 16.93L172.01 16.93L172.01 17.91Q172.01 19.38 172.60 20.47Q173.20 21.55 174.21 22.13Q175.23 22.71 176.52 22.71L176.52 22.71Q177.85 22.71 178.76 22.11Q179.67 21.52 180.16 20.54L180.16 20.54L184.78 20.54Q184.29 22.18 183.15 23.53Q182.02 24.88 180.34 25.65Q178.66 26.42 176.56 26.42ZM196.05 26.42L196.05 26.42Q193.39 26.42 191.34 25.25Q189.30 24.07 188.12 22.03Q186.95 19.98 186.95 17.32L186.95 17.32Q186.95 14.66 188.12 12.61Q189.30 10.56 191.34 9.39Q193.39 8.22 196.05 8.22L196.05 8.22Q199.38 8.22 201.65 9.95Q203.93 11.68 204.56 14.73L204.56 14.73L199.76 14.73Q199.45 13.54 198.43 12.82Q197.42 12.10 196.02 12.10L196.02 12.10Q194.83 12.10 193.81 12.73Q192.80 13.36 192.20 14.52Q191.61 15.67 191.61 17.32L191.61 17.32Q191.61 18.93 192.20 20.12Q192.80 21.31 193.81 21.92Q194.83 22.54 196.02 22.54L196.02 22.54Q197.42 22.54 198.43 21.85Q199.45 21.17 199.76 19.91L199.76 19.91L204.56 19.91Q203.96 22.85 201.67 24.63Q199.38 26.42 196.05 26.42ZM211.35 26L206.80 26L206.80 0.80L211.35 0.80L211.35 11.26Q212.19 9.86 213.71 9.04Q215.23 8.22 217.12 8.22L217.12 8.22Q220.34 8.22 222.11 10.27Q223.88 12.31 223.88 16.23L223.88 16.23L223.88 26L219.36 26L219.36 16.66Q219.36 14.41 218.47 13.24Q217.58 12.07 215.69 12.07L215.69 12.07Q213.80 12.07 212.57 13.38Q211.35 14.69 211.35 17.04L211.35 17.04L211.35 26Z"/></g>
        
      </svg>
    